<svg width="40" height="40" viewBox="0 0 40 40" fill="none" xmlns="http://www.w3.org/2000/svg">
<path d="M32 27.5V12.5C32 5.6075 26.3925 0 19.5 0C12.6075 0 7 5.6075 7 12.5V27.5C7 34.3925 12.6075 40 19.5 40C26.3925 40 32 34.3913 32 27.5ZM9.5 27.5V12.5C9.5 6.98625 13.9863 2.5 19.5 2.5C25.0138 2.5 29.5 6.98625 29.5 12.5V27.5C29.5 33.0137 25.0138 37.5 19.5 37.5C13.9863 37.5 9.5 33.0137 9.5 27.5Z" fill="white"/>
<path d="M22.7773 13.9825V10.2325C22.7773 8.50879 21.3761 7.10754 19.6523 7.10754C17.9286 7.10754 16.5273 8.50879 16.5273 10.2325V13.9825C16.5273 15.7063 17.9286 17.1075 19.6523 17.1075C21.3761 17.1075 22.7773 15.7063 22.7773 13.9825ZM19.0273 13.9825V10.2325C19.0273 9.88879 19.3086 9.60754 19.6523 9.60754C19.9961 9.60754 20.2773 9.88879 20.2773 10.2325V13.9825C20.2773 14.3263 19.9961 14.6075 19.6523 14.6075C19.3086 14.6075 19.0273 14.3275 19.0273 13.9825Z" fill="white"/>
</svg>
